<svg aria-hidden="true" style="position: absolute; width: 0; height: 0; overflow: hidden;" version="1.1" xmlns="http://www.w3.org/2000/svg" xmlns:xlink="http://www.w3.org/1999/xlink">
<defs>
<symbol id="icon-arrow-down" viewBox="0 0 24 24">
<title>arrow-down</title>
<path d="M18.293 11.293l-5.293 5.293v-11.586c0-0.552-0.448-1-1-1s-1 0.448-1 1v11.586l-5.293-5.293c-0.391-0.391-1.024-0.391-1.414 0s-0.391 1.024 0 1.414l7 7c0.096 0.096 0.207 0.168 0.325 0.217 0.12 0.049 0.247 0.075 0.374 0.076 0.133 0.001 0.266-0.024 0.39-0.076 0.118-0.049 0.229-0.121 0.325-0.217l7-7c0.391-0.391 0.391-1.024 0-1.414s-1.024-0.391-1.414 0z"></path>
</symbol>
<symbol id="icon-arrow-up" viewBox="0 0 24 24">
<title>arrow-up</title>
<path d="M5.707 12.707l5.293-5.293v11.586c0 0.552 0.448 1 1 1s1-0.448 1-1v-11.586l5.293 5.293c0.391 0.391 1.024 0.391 1.414 0s0.391-1.024 0-1.414l-7-7c-0.002-0.002-0.003-0.003-0.005-0.005-0.095-0.093-0.203-0.164-0.319-0.212-0.245-0.101-0.522-0.101-0.767 0-0.118 0.049-0.228 0.121-0.324 0.217l-7 7c-0.391 0.391-0.391 1.024 0 1.414s1.024 0.391 1.414 0z"></path>
</symbol>
<symbol id="icon-at-sign" viewBox="0 0 24 24">
<title>at-sign</title>
<path d="M15 12c0 0.408-0.081 0.795-0.227 1.147-0.152 0.366-0.375 0.697-0.652 0.974s-0.608 0.5-0.974 0.652c-0.352 0.146-0.739 0.227-1.147 0.227s-0.795-0.081-1.147-0.227c-0.366-0.152-0.697-0.375-0.974-0.652s-0.5-0.608-0.652-0.974c-0.146-0.352-0.227-0.739-0.227-1.147s0.081-0.795 0.227-1.147c0.152-0.366 0.375-0.697 0.652-0.974s0.608-0.5 0.974-0.652c0.352-0.146 0.739-0.227 1.147-0.227s0.795 0.081 1.147 0.227c0.366 0.152 0.697 0.375 0.974 0.652s0.5 0.608 0.652 0.974c0.146 0.352 0.227 0.739 0.227 1.147zM15.74 15.318c0.13 0.182 0.274 0.353 0.431 0.51 0.368 0.368 0.808 0.665 1.298 0.868 0.474 0.196 0.991 0.304 1.531 0.304s1.057-0.108 1.53-0.303c0.49-0.203 0.93-0.5 1.298-0.868s0.665-0.808 0.868-1.298c0.196-0.474 0.304-0.991 0.304-1.531v-1c0-1.488-0.296-2.91-0.834-4.207-0.558-1.347-1.375-2.558-2.389-3.571s-2.225-1.83-3.571-2.388c-1.297-0.537-2.719-0.833-4.207-0.833s-2.909 0.296-4.207 0.833c-1.346 0.558-2.557 1.375-3.571 2.389s-1.83 2.225-2.388 3.571c-0.537 1.298-0.833 2.719-0.833 4.207s0.296 2.91 0.834 4.207c0.558 1.347 1.375 2.558 2.389 3.571s2.225 1.83 3.571 2.388c1.297 0.537 2.719 0.833 4.207 0.833 1.245 0 2.443-0.207 3.559-0.588 1.145-0.391 2.202-0.963 3.132-1.681 0.437-0.337 0.518-0.965 0.181-1.403s-0.965-0.518-1.403-0.181c-0.757 0.585-1.62 1.052-2.555 1.371-0.911 0.311-1.891 0.481-2.913 0.481-1.221 0-2.383-0.242-3.442-0.681-1.101-0.456-2.092-1.124-2.923-1.955s-1.499-1.822-1.955-2.922c-0.439-1.057-0.682-2.219-0.682-3.44s0.242-2.382 0.681-3.441c0.456-1.101 1.124-2.092 1.955-2.923s1.822-1.499 2.922-1.955c1.059-0.439 2.221-0.681 3.441-0.681s2.383 0.242 3.442 0.681c1.101 0.456 2.092 1.124 2.923 1.955 0.831 0.83 1.499 1.822 1.955 2.922 0.438 1.058 0.681 2.22 0.681 3.441v1c0 0.273-0.054 0.53-0.151 0.765-0.101 0.244-0.25 0.464-0.435 0.65-0.185 0.185-0.406 0.334-0.65 0.435-0.234 0.096-0.491 0.15-0.764 0.15s-0.53-0.054-0.765-0.151c-0.244-0.101-0.464-0.25-0.65-0.435-0.185-0.185-0.334-0.406-0.435-0.65-0.096-0.234-0.15-0.491-0.15-0.764v-5c0-0.552-0.448-1-1-1s-1 0.448-1 1c-0.332-0.25-0.697-0.459-1.088-0.621-0.59-0.245-1.237-0.379-1.912-0.379s-1.322 0.134-1.912 0.379c-0.613 0.254-1.163 0.625-1.624 1.085s-0.832 1.011-1.085 1.623c-0.245 0.591-0.379 1.238-0.379 1.913s0.134 1.322 0.379 1.912c0.254 0.613 0.625 1.163 1.085 1.623s1.011 0.832 1.623 1.085c0.591 0.246 1.238 0.38 1.913 0.38s1.322-0.134 1.912-0.379c0.613-0.254 1.163-0.625 1.623-1.085 0.070-0.070 0.139-0.143 0.205-0.217z"></path>
</symbol>
<symbol id="icon-chevron-down" viewBox="0 0 24 24">
<title>chevron-down</title>
<path d="M5.293 9.707l6 6c0.391 0.391 1.024 0.391 1.414 0l6-6c0.391-0.391 0.391-1.024 0-1.414s-1.024-0.391-1.414 0l-5.293 5.293-5.293-5.293c-0.391-0.391-1.024-0.391-1.414 0s-0.391 1.024 0 1.414z"></path>
</symbol>
<symbol id="icon-chevron-up" viewBox="0 0 24 24">
<title>chevron-up</title>
<path d="M18.707 14.293l-6-6c-0.391-0.391-1.024-0.391-1.414 0l-6 6c-0.391 0.391-0.391 1.024 0 1.414s1.024 0.391 1.414 0l5.293-5.293 5.293 5.293c0.391 0.391 1.024 0.391 1.414 0s0.391-1.024 0-1.414z"></path>
</symbol>
<symbol id="icon-chevrons-down" viewBox="0 0 24 24">
<title>chevrons-down</title>
<path d="M6.293 13.707l5 5c0.391 0.391 1.024 0.391 1.414 0l5-5c0.391-0.391 0.391-1.024 0-1.414s-1.024-0.391-1.414 0l-4.293 4.293-4.293-4.293c-0.391-0.391-1.024-0.391-1.414 0s-0.391 1.024 0 1.414zM6.293 6.707l5 5c0.391 0.391 1.024 0.391 1.414 0l5-5c0.391-0.391 0.391-1.024 0-1.414s-1.024-0.391-1.414 0l-4.293 4.293-4.293-4.293c-0.391-0.391-1.024-0.391-1.414 0s-0.391 1.024 0 1.414z"></path>
</symbol>
<symbol id="icon-chevrons-up" viewBox="0 0 24 24">
<title>chevrons-up</title>
<path d="M17.707 10.293l-5-5c-0.391-0.391-1.024-0.391-1.414 0l-5 5c-0.391 0.391-0.391 1.024 0 1.414s1.024 0.391 1.414 0l4.293-4.293 4.293 4.293c0.391 0.391 1.024 0.391 1.414 0s0.391-1.024 0-1.414zM17.707 17.293l-5-5c-0.391-0.391-1.024-0.391-1.414 0l-5 5c-0.391 0.391-0.391 1.024 0 1.414s1.024 0.391 1.414 0l4.293-4.293 4.293 4.293c0.391 0.391 1.024 0.391 1.414 0s0.391-1.024 0-1.414z"></path>
</symbol>
<symbol id="icon-code" viewBox="0 0 24 24">
<title>code</title>
<path d="M16.707 18.707l6-6c0.391-0.391 0.391-1.024 0-1.414l-6-6c-0.391-0.391-1.024-0.391-1.414 0s-0.391 1.024 0 1.414l5.293 5.293-5.293 5.293c-0.391 0.391-0.391 1.024 0 1.414s1.024 0.391 1.414 0zM7.293 5.293l-6 6c-0.391 0.391-0.391 1.024 0 1.414l6 6c0.391 0.391 1.024 0.391 1.414 0s0.391-1.024 0-1.414l-5.293-5.293 5.293-5.293c0.391-0.391 0.391-1.024 0-1.414s-1.024-0.391-1.414 0z"></path>
</symbol>
<symbol id="icon-database" viewBox="0 0 24 24">
<title>database</title>
<path d="M20 5.002c-0.001 0.005-0.016 0.104-0.213 0.284-0.092 0.085-0.215 0.179-0.373 0.277-0.244 0.152-0.555 0.306-0.933 0.453-0.613 0.239-1.373 0.45-2.249 0.615-1.238 0.234-2.683 0.369-4.232 0.369s-2.994-0.135-4.232-0.368c-0.877-0.165-1.636-0.377-2.25-0.616-0.378-0.147-0.688-0.301-0.932-0.453-0.158-0.098-0.281-0.192-0.373-0.277-0.196-0.18-0.212-0.278-0.213-0.284 0-0.002 0.006-0.097 0.213-0.288 0.092-0.085 0.215-0.179 0.373-0.277 0.244-0.152 0.554-0.306 0.932-0.453 0.614-0.239 1.373-0.451 2.25-0.616 1.238-0.233 2.683-0.368 4.232-0.368s2.994 0.135 4.232 0.368c0.877 0.165 1.636 0.376 2.249 0.615 0.378 0.147 0.689 0.301 0.933 0.453 0.158 0.099 0.281 0.192 0.373 0.277 0.199 0.184 0.213 0.282 0.213 0.289zM20 14.532v4.471c0 0-0.002 0.017-0.017 0.049-0.024 0.048-0.079 0.132-0.199 0.242-0.093 0.085-0.216 0.179-0.374 0.277-0.243 0.151-0.553 0.304-0.929 0.451-0.609 0.237-1.363 0.447-2.235 0.61-1.239 0.233-2.687 0.368-4.246 0.368s-3.007-0.135-4.245-0.368c-0.872-0.164-1.626-0.373-2.235-0.61-0.377-0.147-0.686-0.299-0.929-0.451-0.158-0.099-0.281-0.192-0.374-0.277-0.12-0.11-0.176-0.194-0.199-0.242-0.016-0.032-0.018-0.052-0.018-0.052v-4.468c0.249 0.127 0.515 0.245 0.794 0.354 0.75 0.292 1.628 0.531 2.591 0.712 1.372 0.258 2.945 0.402 4.615 0.402s3.243-0.144 4.615-0.402c0.963-0.181 1.841-0.42 2.591-0.712 0.28-0.109 0.546-0.227 0.794-0.354zM20 7.527v4.463c0 0.004 0 0.008 0 0.013-0.189 0.266-0.203 0.278-0.217 0.291-0.093 0.085-0.216 0.179-0.374 0.277-0.243 0.151-0.553 0.304-0.929 0.451-0.609 0.237-1.363 0.447-2.235 0.61-1.238 0.233-2.686 0.368-4.245 0.368s-3.007-0.135-4.245-0.368c-0.872-0.164-1.626-0.373-2.235-0.61-0.377-0.147-0.686-0.299-0.929-0.451-0.158-0.099-0.281-0.192-0.374-0.277-0.12-0.11-0.176-0.194-0.199-0.242-0.016-0.032-0.018-0.049-0.018-0.049 0-0.006 0-0.012 0-0.017v-4.459c0.248 0.126 0.513 0.244 0.792 0.353 0.754 0.294 1.637 0.535 2.606 0.717 1.372 0.258 2.941 0.403 4.602 0.403s3.23-0.145 4.602-0.403c0.968-0.182 1.852-0.423 2.606-0.718 0.279-0.109 0.544-0.226 0.792-0.353zM2 5v14c0 0.058 0.002 0.116 0.007 0.174 0.023 0.273 0.101 0.528 0.215 0.761 0.159 0.323 0.387 0.599 0.642 0.833 0.201 0.184 0.427 0.351 0.669 0.502 0.371 0.231 0.797 0.436 1.261 0.617 0.75 0.292 1.628 0.531 2.591 0.712 1.372 0.257 2.945 0.401 4.615 0.401s3.243-0.144 4.615-0.402c0.963-0.181 1.841-0.42 2.591-0.712 0.463-0.18 0.889-0.385 1.261-0.617 0.242-0.151 0.469-0.318 0.669-0.502 0.255-0.234 0.483-0.51 0.642-0.833 0.114-0.233 0.192-0.488 0.215-0.761 0.005-0.057 0.007-0.115 0.007-0.173v-14c0-0.056-0.002-0.112-0.007-0.168-0.023-0.272-0.099-0.526-0.213-0.758-0.158-0.322-0.385-0.598-0.639-0.832-0.2-0.184-0.426-0.351-0.669-0.502-0.372-0.232-0.8-0.438-1.265-0.62-0.754-0.294-1.638-0.535-2.606-0.718-1.371-0.257-2.94-0.402-4.601-0.402s-3.23 0.145-4.602 0.403c-0.969 0.182-1.852 0.423-2.606 0.717-0.465 0.182-0.893 0.388-1.265 0.62-0.242 0.151-0.468 0.318-0.668 0.502-0.254 0.234-0.482 0.509-0.639 0.832-0.114 0.232-0.19 0.486-0.213 0.758-0.005 0.056-0.007 0.112-0.007 0.168z"></path>
</symbol>
<symbol id="icon-facebook" viewBox="0 0 24 24">
<title>facebook</title>
<path d="M17 3v2h-2c-0.269 0-0.528 0.054-0.765 0.152-0.246 0.102-0.465 0.25-0.649 0.434s-0.332 0.404-0.434 0.649c-0.098 0.237-0.152 0.496-0.152 0.765v3c0 0.552 0.448 1 1 1h2.719l-0.5 2h-2.219c-0.552 0-1 0.448-1 1v7h-2v-7c0-0.552-0.448-1-1-1h-2v-2h2c0.552 0 1-0.448 1-1v-3c0-0.544 0.108-1.060 0.303-1.529 0.202-0.489 0.5-0.929 0.869-1.299s0.81-0.667 1.299-0.869c0.469-0.195 0.985-0.303 1.529-0.303zM18 1h-3c-0.811 0-1.587 0.161-2.295 0.455-0.735 0.304-1.395 0.75-1.948 1.303s-0.998 1.212-1.302 1.947c-0.294 0.708-0.455 1.484-0.455 2.295v2h-2c-0.552 0-1 0.448-1 1v4c0 0.552 0.448 1 1 1h2v7c0 0.552 0.448 1 1 1h4c0.552 0 1-0.448 1-1v-7h2c0.466 0 0.858-0.319 0.97-0.757l1-4c0.134-0.536-0.192-1.079-0.728-1.213-0.083-0.021-0.167-0.031-0.242-0.030h-3v-2h3c0.552 0 1-0.448 1-1v-4c0-0.552-0.448-1-1-1z"></path>
</symbol>
<symbol id="icon-film" viewBox="0 0 24 24">
<title>film</title>
<path d="M16 11h-8v-8h8zM8 13h8v8h-8zM6 6h-3v-1.82c0-0.162 0.032-0.313 0.089-0.451 0.059-0.144 0.147-0.274 0.257-0.383s0.24-0.197 0.383-0.257c0.138-0.057 0.289-0.089 0.451-0.089h1.82zM3 8h3v3h-3zM6 16h-3v-3h3zM3 18h3v3h-1.82c-0.162 0-0.313-0.032-0.451-0.089-0.144-0.059-0.274-0.147-0.383-0.257s-0.197-0.24-0.257-0.383c-0.057-0.138-0.089-0.289-0.089-0.451zM21 16h-3v-3h3zM18 18h3v1.82c0 0.162-0.032 0.313-0.089 0.451-0.059 0.144-0.147 0.274-0.257 0.383s-0.24 0.197-0.383 0.257c-0.138 0.057-0.289 0.089-0.451 0.089h-1.82zM21 6h-3v-3h1.82c0.162 0 0.313 0.032 0.451 0.089 0.144 0.059 0.274 0.147 0.383 0.257s0.197 0.24 0.257 0.383c0.057 0.138 0.089 0.289 0.089 0.451zM23 7v-2.82c0-0.429-0.085-0.84-0.241-1.216-0.162-0.39-0.398-0.74-0.69-1.032s-0.642-0.529-1.032-0.69c-0.377-0.157-0.788-0.242-1.217-0.242h-15.64c-0.429 0-0.84 0.085-1.216 0.241-0.39 0.162-0.74 0.398-1.032 0.69s-0.529 0.642-0.69 1.032c-0.157 0.377-0.242 0.788-0.242 1.217v15.64c0 0.429 0.085 0.84 0.241 1.216 0.162 0.39 0.398 0.74 0.69 1.032s0.642 0.529 1.032 0.69c0.377 0.157 0.788 0.242 1.217 0.242h15.64c0.429 0 0.84-0.085 1.216-0.241 0.39-0.162 0.74-0.398 1.032-0.69s0.529-0.642 0.69-1.032c0.157-0.377 0.242-0.788 0.242-1.217zM18 8h3v3h-3z"></path>
</symbol>
<symbol id="icon-github" viewBox="0 0 24 24">
<title>github</title>
<path d="M8 18.223c-0.4 0.082-0.742 0.113-1.033 0.111-0.336-0.002-0.609-0.050-0.837-0.122-0.231-0.073-0.432-0.176-0.614-0.302-0.119-0.082-0.234-0.177-0.346-0.282-0.078-0.073-0.154-0.151-0.23-0.234-0.184-0.2-0.353-0.415-0.543-0.656-0.104-0.132-0.215-0.273-0.329-0.41-0.046-0.055-0.093-0.111-0.142-0.167-0.067-0.076-0.137-0.153-0.211-0.229-0.1-0.103-0.208-0.205-0.325-0.303-0.161-0.134-0.341-0.261-0.544-0.368-0.185-0.098-0.386-0.177-0.604-0.232-0.536-0.134-1.079 0.192-1.213 0.728s0.192 1.079 0.728 1.213c0.051 0.013 0.102 0.032 0.155 0.060 0.059 0.031 0.124 0.075 0.198 0.136 0.054 0.045 0.111 0.098 0.172 0.161 0.045 0.046 0.091 0.097 0.14 0.152 0.035 0.040 0.071 0.083 0.108 0.127 0.094 0.113 0.189 0.234 0.296 0.37 0.183 0.232 0.397 0.505 0.64 0.769 0.104 0.114 0.215 0.228 0.335 0.341 0.173 0.163 0.364 0.322 0.578 0.469 0.332 0.229 0.711 0.426 1.149 0.564 0.431 0.136 0.904 0.211 1.425 0.215 0.33 0.002 0.679-0.024 1.047-0.080v1.746c0 0.552 0.448 1 1 1s1-0.448 1-1v-3.87c0-0.021-0.001-0.045-0.002-0.069-0.006-0.084-0.007-0.168-0.004-0.251 0.010-0.29 0.073-0.577 0.187-0.846 0.11-0.258 0.269-0.502 0.478-0.719 0.145-0.149 0.246-0.347 0.274-0.572 0.068-0.548-0.321-1.048-0.869-1.116-0.34-0.042-0.677-0.094-1.006-0.159-0.79-0.156-1.518-0.385-2.147-0.733-0.349-0.193-0.666-0.422-0.946-0.696-0.249-0.243-0.475-0.526-0.671-0.858-0.208-0.353-0.386-0.768-0.52-1.262-0.172-0.626-0.274-1.384-0.274-2.305-0.003-0.564 0.1-1.129 0.312-1.661 0.203-0.513 0.506-0.997 0.912-1.423 0.257-0.274 0.35-0.672 0.213-1.040-0.18-0.482-0.27-0.997-0.257-1.519 0.007-0.29 0.045-0.582 0.117-0.872 0.175 0.038 0.398 0.103 0.673 0.21 0.491 0.191 1.145 0.518 1.973 1.073 0.235 0.157 0.533 0.214 0.825 0.133 1.997-0.557 4.242-0.602 6.47 0.002 0.271 0.073 0.569 0.033 0.818-0.135 0.829-0.555 1.482-0.882 1.973-1.073 0.275-0.107 0.499-0.171 0.673-0.209 0.070 0.284 0.109 0.576 0.117 0.872 0.012 0.503-0.069 1.017-0.257 1.521-0.129 0.352-0.058 0.755 0.213 1.040 0.386 0.405 0.696 0.883 0.907 1.411 0.205 0.505 0.318 1.061 0.318 1.646 0 0.936-0.105 1.708-0.281 2.347-0.138 0.499-0.319 0.918-0.53 1.272-0.199 0.333-0.427 0.615-0.679 0.857-0.284 0.272-0.603 0.498-0.955 0.688-0.623 0.336-1.343 0.555-2.123 0.7-0.322 0.060-0.651 0.106-0.983 0.143-0.21 0.023-0.418 0.114-0.584 0.275-0.397 0.384-0.408 1.017-0.024 1.414 0.067 0.069 0.13 0.143 0.188 0.219 0.174 0.229 0.306 0.489 0.387 0.767 0.078 0.267 0.111 0.554 0.087 0.851 0 0.024-0.001 0.051-0.003 0.078v3.869c0 0.552 0.448 1 1 1s1-0.448 1-1v-3.833c0.037-0.529-0.023-1.044-0.165-1.529-0.037-0.126-0.080-0.25-0.127-0.372 0.777-0.171 1.563-0.427 2.297-0.823 0.492-0.266 0.962-0.595 1.388-1.004 0.38-0.364 0.722-0.787 1.014-1.276 0.31-0.52 0.559-1.106 0.741-1.765 0.232-0.84 0.353-1.795 0.353-2.878 0-0.844-0.163-1.652-0.46-2.393-0.231-0.576-0.542-1.11-0.919-1.589 0.148-0.561 0.212-1.128 0.198-1.687-0.019-0.781-0.189-1.543-0.491-2.246-0.122-0.283-0.359-0.482-0.635-0.564-0.146-0.043-0.511-0.115-1.113-0.024-0.349 0.053-0.772 0.16-1.276 0.356-0.559 0.217-1.218 0.544-1.984 1.029-2.273-0.541-4.557-0.509-6.646-0.002-0.765-0.484-1.423-0.81-1.981-1.027-0.504-0.196-0.927-0.303-1.276-0.356-0.602-0.092-0.967-0.020-1.113 0.024-0.296 0.088-0.521 0.3-0.635 0.565-0.313 0.732-0.472 1.494-0.49 2.247-0.013 0.574 0.055 1.141 0.199 1.686-0.393 0.497-0.702 1.039-0.927 1.607-0.307 0.774-0.457 1.593-0.452 2.41 0 1.056 0.118 1.994 0.343 2.821 0.178 0.653 0.422 1.234 0.727 1.751 0.287 0.487 0.624 0.91 0.999 1.275 0.421 0.41 0.885 0.742 1.372 1.012 0.752 0.416 1.56 0.685 2.357 0.867-0.186 0.469-0.287 0.962-0.304 1.457-0.005 0.141-0.003 0.282 0.005 0.423z"></path>
</symbol>
<symbol id="icon-globe" viewBox="0 0 24 24">
<title>globe</title>
<path d="M16.951 11c-0.128-1.602-0.494-3.195-1.102-4.72-0.413-1.035-0.936-2.037-1.572-2.99 0.4 0.104 0.788 0.235 1.164 0.391 1.101 0.456 2.092 1.124 2.922 1.955 0.831 0.831 1.499 1.822 1.955 2.922 0.317 0.766 0.532 1.585 0.626 2.442zM14.279 20.709c0.614-0.921 1.137-1.911 1.556-2.955 0.594-1.48 0.978-3.070 1.113-4.754h3.997c-0.095 0.857-0.309 1.676-0.626 2.442-0.456 1.101-1.124 2.092-1.955 2.922s-1.822 1.499-2.922 1.955c-0.375 0.155-0.763 0.286-1.162 0.39zM7.049 13c0.128 1.602 0.494 3.195 1.102 4.72 0.413 1.035 0.936 2.037 1.572 2.99-0.4-0.104-0.788-0.235-1.164-0.391-1.101-0.456-2.092-1.124-2.922-1.955-0.831-0.831-1.499-1.822-1.955-2.922-0.318-0.766-0.533-1.585-0.627-2.442zM9.721 3.291c-0.614 0.921-1.137 1.91-1.556 2.955-0.594 1.48-0.978 3.070-1.114 4.754h-3.996c0.095-0.857 0.309-1.676 0.626-2.442 0.456-1.101 1.124-2.092 1.955-2.922s1.822-1.499 2.922-1.955c0.375-0.155 0.763-0.286 1.162-0.39zM11.997 1c-1.487 0-2.908 0.296-4.204 0.833-1.347 0.558-2.558 1.375-3.571 2.389s-1.831 2.224-2.389 3.571c-0.537 1.297-0.833 2.719-0.833 4.207s0.296 2.91 0.833 4.207c0.558 1.347 1.375 2.558 2.388 3.571s2.224 1.831 3.571 2.388c1.296 0.537 2.716 0.833 4.203 0.833 0.001 0 0.003 0 0.004 0s0.002 0 0.003 0c1.487 0 2.907-0.296 4.204-0.833 1.347-0.558 2.558-1.375 3.571-2.388s1.831-2.224 2.388-3.571c0.539-1.297 0.835-2.719 0.835-4.207s-0.296-2.91-0.833-4.207c-0.558-1.347-1.375-2.558-2.388-3.571s-2.224-1.831-3.571-2.388c-1.297-0.537-2.717-0.833-4.204-0.834-0.001 0-0.003 0-0.004 0s-0.002 0-0.003 0zM14.945 13c-0.127 1.395-0.46 2.748-0.966 4.009-0.5 1.246-1.169 2.404-1.978 3.442-0.842-1.082-1.506-2.253-1.992-3.473-0.513-1.286-0.83-2.628-0.953-3.979zM11.999 3.549c0.842 1.082 1.506 2.253 1.992 3.473 0.513 1.286 0.83 2.628 0.953 3.979h-5.889c0.127-1.395 0.46-2.748 0.966-4.009 0.5-1.246 1.169-2.404 1.978-3.442z"></path>
</symbol>
<symbol id="icon-hard-drive" viewBox="0 0 24 24">
<title>hard-drive</title>
<path d="M21 13v5c0 0.137-0.027 0.266-0.075 0.382-0.050 0.122-0.125 0.232-0.218 0.325s-0.203 0.167-0.325 0.218c-0.116 0.048-0.245 0.075-0.382 0.075h-16c-0.137 0-0.266-0.027-0.382-0.075-0.122-0.050-0.232-0.125-0.325-0.218s-0.167-0.203-0.218-0.325c-0.048-0.116-0.075-0.245-0.075-0.382v-5zM6.344 5.558c0.066-0.131 0.16-0.246 0.272-0.337 0.088-0.071 0.187-0.127 0.293-0.165 0.102-0.036 0.213-0.056 0.331-0.056h9.513c0.15 0.001 0.295 0.034 0.426 0.094 0.103 0.047 0.197 0.111 0.278 0.189 0.078 0.076 0.145 0.166 0.199 0.275l2.725 5.442h-16.762zM4.556 4.662l-3.45 6.89c-0.028 0.055-0.050 0.112-0.066 0.169-0.028 0.094-0.041 0.188-0.040 0.279v6c0 0.405 0.081 0.793 0.228 1.148 0.152 0.368 0.375 0.698 0.651 0.974s0.606 0.499 0.974 0.651c0.354 0.146 0.742 0.227 1.147 0.227h16c0.405 0 0.793-0.081 1.148-0.228 0.368-0.152 0.698-0.375 0.974-0.651s0.499-0.606 0.651-0.974c0.146-0.354 0.227-0.742 0.227-1.147v-6c0 0 0 0 0 0 0-0.151-0.033-0.293-0.091-0.417-0.005-0.010-0.010-0.021-0.015-0.031l-0.009-0.018-3.441-6.872c-0.154-0.309-0.357-0.584-0.596-0.816-0.247-0.239-0.531-0.431-0.836-0.571-0.389-0.177-0.813-0.272-1.245-0.275h-9.527c-0.349 0-0.685 0.060-0.999 0.171-0.325 0.115-0.622 0.284-0.884 0.496-0.331 0.268-0.605 0.606-0.801 0.995zM7 16c0-0.552-0.448-1-1-1s-1 0.448-1 1 0.448 1 1 1 1-0.448 1-1zM11 16c0-0.552-0.448-1-1-1s-1 0.448-1 1 0.448 1 1 1 1-0.448 1-1z"></path>
</symbol>
<symbol id="icon-hash" viewBox="0 0 24 24">
<title>hash</title>
<path d="M14.216 10l-0.444 4h-3.988l0.444-4zM15.006 2.89l-0.568 5.11h-3.988l0.543-4.89c0.061-0.549-0.335-1.043-0.883-1.104s-1.043 0.335-1.104 0.884l-0.568 5.11h-4.438c-0.552 0-1 0.448-1 1s0.448 1 1 1h4.216l-0.444 4h-3.772c-0.552 0-1 0.448-1 1s0.448 1 1 1h3.549l-0.543 4.89c-0.061 0.549 0.335 1.043 0.883 1.104s1.043-0.335 1.104-0.883l0.569-5.111h3.988l-0.543 4.89c-0.061 0.549 0.335 1.043 0.883 1.104s1.043-0.335 1.104-0.883l0.568-5.111h4.438c0.552 0 1-0.448 1-1s-0.448-1-1-1h-4.216l0.444-4h3.772c0.552 0 1-0.448 1-1s-0.448-1-1-1h-3.549l0.543-4.89c0.061-0.549-0.335-1.043-0.883-1.104s-1.043 0.335-1.104 0.883z"></path>
</symbol>
<symbol id="icon-instagram" viewBox="0 0 24 24">
<title>instagram</title>
<path d="M7 1c-0.811 0-1.587 0.161-2.295 0.455-0.735 0.304-1.395 0.75-1.948 1.302s-0.998 1.213-1.302 1.948c-0.294 0.708-0.455 1.484-0.455 2.295v10c0 0.811 0.161 1.587 0.455 2.295 0.304 0.735 0.75 1.395 1.303 1.948s1.213 0.998 1.948 1.303c0.707 0.293 1.483 0.454 2.294 0.454h10c0.811 0 1.587-0.161 2.295-0.455 0.735-0.304 1.395-0.75 1.948-1.303s0.998-1.213 1.303-1.948c0.293-0.707 0.454-1.483 0.454-2.294v-10c0-0.811-0.161-1.587-0.455-2.295-0.304-0.735-0.75-1.395-1.303-1.948s-1.213-0.998-1.948-1.303c-0.707-0.293-1.483-0.454-2.294-0.454zM7 3h10c0.544 0 1.060 0.108 1.529 0.303 0.489 0.202 0.929 0.5 1.299 0.869s0.667 0.81 0.869 1.299c0.195 0.469 0.303 0.985 0.303 1.529v10c0 0.544-0.108 1.060-0.303 1.529-0.202 0.489-0.5 0.929-0.869 1.299s-0.81 0.667-1.299 0.869c-0.469 0.195-0.985 0.303-1.529 0.303h-10c-0.544 0-1.060-0.108-1.529-0.303-0.489-0.202-0.929-0.5-1.299-0.869s-0.667-0.81-0.869-1.299c-0.195-0.469-0.303-0.985-0.303-1.529v-10c0-0.544 0.108-1.060 0.303-1.529 0.202-0.489 0.5-0.929 0.869-1.299s0.81-0.667 1.299-0.869c0.469-0.195 0.985-0.303 1.529-0.303zM16.989 11.223c-0.15-0.972-0.571-1.857-1.194-2.567-0.383-0.437-0.842-0.808-1.362-1.092-0.503-0.275-1.061-0.465-1.647-0.552-0.464-0.074-0.97-0.077-1.477-0.002-0.668 0.099-1.288 0.327-1.836 0.655-0.569 0.341-1.059 0.789-1.446 1.312s-0.674 1.123-0.835 1.766c-0.155 0.62-0.193 1.279-0.094 1.947s0.327 1.288 0.655 1.836c0.341 0.569 0.789 1.059 1.312 1.446s1.122 0.674 1.765 0.836c0.62 0.155 1.279 0.193 1.947 0.094s1.288-0.327 1.836-0.655c0.569-0.341 1.059-0.789 1.446-1.312s0.674-1.122 0.836-1.765c0.155-0.62 0.193-1.279 0.094-1.947zM15.011 11.517c0.060 0.404 0.037 0.798-0.056 1.168-0.096 0.385-0.268 0.744-0.502 1.059s-0.528 0.584-0.868 0.788c-0.327 0.196-0.698 0.333-1.101 0.393s-0.798 0.037-1.168-0.056c-0.385-0.096-0.744-0.268-1.059-0.502s-0.584-0.528-0.788-0.868c-0.196-0.327-0.333-0.698-0.393-1.101s-0.037-0.798 0.056-1.168c0.096-0.385 0.268-0.744 0.502-1.059s0.528-0.584 0.868-0.788c0.327-0.196 0.698-0.333 1.101-0.393 0.313-0.046 0.615-0.042 0.87-0.002 0.37 0.055 0.704 0.17 1.003 0.333 0.31 0.169 0.585 0.391 0.815 0.654 0.375 0.428 0.63 0.963 0.72 1.543zM18.5 6.5c0-0.552-0.448-1-1-1s-1 0.448-1 1 0.448 1 1 1 1-0.448 1-1z"></path>
</symbol>
<symbol id="icon-linkedin" viewBox="0 0 24 24">
<title>linkedin</title>
<path d="M16 7c-0.946 0-1.851 0.188-2.677 0.53-0.857 0.355-1.628 0.875-2.273 1.52s-1.165 1.415-1.52 2.273c-0.342 0.826-0.53 1.731-0.53 2.677v7c0 0.552 0.448 1 1 1h4c0.552 0 1-0.448 1-1v-7c0-0.137 0.027-0.266 0.075-0.382 0.050-0.122 0.125-0.232 0.218-0.325s0.203-0.167 0.325-0.218c0.116-0.048 0.245-0.075 0.382-0.075s0.266 0.027 0.382 0.075c0.122 0.050 0.232 0.125 0.325 0.218s0.167 0.203 0.218 0.325c0.048 0.116 0.075 0.245 0.075 0.382v7c0 0.552 0.448 1 1 1h4c0.552 0 1-0.448 1-1v-7c0-0.946-0.188-1.851-0.53-2.677-0.355-0.857-0.875-1.628-1.52-2.273s-1.415-1.165-2.273-1.52c-0.826-0.342-1.731-0.53-2.677-0.53zM16 9c0.679 0 1.324 0.135 1.912 0.378 0.611 0.253 1.162 0.624 1.624 1.086s0.833 1.013 1.086 1.624c0.243 0.588 0.378 1.233 0.378 1.912v6h-2v-6c0-0.405-0.081-0.793-0.228-1.148-0.152-0.368-0.375-0.698-0.651-0.974s-0.606-0.499-0.974-0.651c-0.354-0.146-0.742-0.227-1.147-0.227s-0.793 0.081-1.148 0.228c-0.368 0.152-0.698 0.375-0.974 0.651s-0.499 0.606-0.651 0.974c-0.146 0.354-0.227 0.742-0.227 1.147v6h-2v-6c0-0.679 0.135-1.324 0.378-1.912 0.253-0.611 0.624-1.162 1.086-1.624s1.013-0.833 1.624-1.086c0.588-0.243 1.233-0.378 1.912-0.378zM2 8c-0.552 0-1 0.448-1 1v12c0 0.552 0.448 1 1 1h4c0.552 0 1-0.448 1-1v-12c0-0.552-0.448-1-1-1zM3 10h2v10h-2zM7 4c0-0.405-0.081-0.793-0.228-1.148-0.152-0.367-0.375-0.697-0.651-0.973s-0.606-0.499-0.973-0.651c-0.355-0.147-0.743-0.228-1.148-0.228s-0.793 0.081-1.148 0.228c-0.367 0.152-0.697 0.375-0.973 0.651s-0.499 0.606-0.651 0.973c-0.147 0.355-0.228 0.743-0.228 1.148s0.081 0.793 0.228 1.148c0.152 0.367 0.375 0.697 0.651 0.973s0.606 0.499 0.973 0.651c0.355 0.147 0.743 0.228 1.148 0.228s0.793-0.081 1.148-0.228c0.367-0.152 0.697-0.375 0.973-0.651s0.499-0.606 0.651-0.973c0.147-0.355 0.228-0.743 0.228-1.148zM5 4c0 0.137-0.027 0.266-0.075 0.382-0.051 0.122-0.125 0.232-0.218 0.325s-0.203 0.167-0.325 0.218c-0.116 0.048-0.245 0.075-0.382 0.075s-0.266-0.027-0.382-0.075c-0.122-0.051-0.232-0.125-0.325-0.218s-0.167-0.203-0.218-0.325c-0.048-0.116-0.075-0.245-0.075-0.382s0.027-0.266 0.075-0.382c0.051-0.122 0.125-0.232 0.218-0.325s0.203-0.167 0.325-0.218c0.116-0.048 0.245-0.075 0.382-0.075s0.266 0.027 0.382 0.075c0.122 0.051 0.232 0.125 0.325 0.218s0.167 0.203 0.218 0.325c0.048 0.116 0.075 0.245 0.075 0.382z"></path>
</symbol>
<symbol id="icon-mail" viewBox="0 0 24 24">
<title>mail</title>
<path d="M3 7.921l8.427 5.899c0.34 0.235 0.795 0.246 1.147 0l8.426-5.899v10.079c0 0.134-0.027 0.261-0.075 0.377-0.051 0.122-0.126 0.234-0.22 0.328s-0.206 0.169-0.328 0.22c-0.116 0.048-0.243 0.075-0.377 0.075h-16c-0.134 0-0.261-0.027-0.377-0.075-0.122-0.051-0.234-0.126-0.328-0.22s-0.169-0.206-0.22-0.328c-0.048-0.116-0.075-0.243-0.075-0.377zM1 6.012v11.988c0 0.403 0.081 0.79 0.227 1.143 0.153 0.369 0.377 0.7 0.653 0.977s0.608 0.501 0.977 0.653c0.353 0.146 0.74 0.227 1.143 0.227h16c0.403 0 0.79-0.081 1.143-0.227 0.369-0.153 0.7-0.377 0.977-0.653s0.501-0.608 0.653-0.977c0.146-0.353 0.227-0.74 0.227-1.143v-12c0-0.006 0-0.012 0-0.017-0.002-0.397-0.083-0.777-0.227-1.125-0.153-0.369-0.377-0.7-0.653-0.977s-0.608-0.501-0.977-0.653c-0.353-0.147-0.74-0.228-1.143-0.228h-16c-0.403 0-0.79 0.081-1.143 0.227-0.369 0.153-0.7 0.377-0.977 0.653s-0.5 0.608-0.653 0.977c-0.144 0.348-0.225 0.729-0.227 1.126 0 0.005 0 0.011 0 0.017zM20.894 5.554l-8.894 6.225-8.894-6.225c0.048-0.095 0.112-0.183 0.188-0.259 0.095-0.095 0.206-0.17 0.329-0.22 0.116-0.048 0.243-0.075 0.377-0.075h16c0.134 0 0.261 0.027 0.377 0.075 0.122 0.051 0.234 0.126 0.328 0.22 0.076 0.076 0.14 0.164 0.188 0.259z"></path>
</symbol>
<symbol id="icon-map-pin" viewBox="0 0 24 24">
<title>map-pin</title>
<path d="M22 10c0-1.353-0.269-2.645-0.758-3.824-0.507-1.224-1.25-2.325-2.171-3.247-0.921-0.921-2.022-1.664-3.247-2.171-1.179-0.489-2.471-0.758-3.824-0.758s-2.645 0.269-3.824 0.758c-1.225 0.507-2.326 1.25-3.247 2.171s-1.664 2.022-2.171 3.247c-0.489 1.179-0.758 2.471-0.758 3.824 0 0.569 0.053 1.128 0.15 1.676 0.274 1.548 0.899 3.004 1.682 4.32 0.859 1.443 1.923 2.744 2.969 3.845 0.877 0.923 1.75 1.715 2.496 2.343 0.528 0.444 0.994 0.808 1.356 1.079 0.222 0.167 0.406 0.299 0.54 0.394 0.157 0.111 0.253 0.175 0.253 0.175 0.331 0.217 0.765 0.229 1.109 0 0 0 0.097-0.065 0.253-0.175 0.134-0.095 0.317-0.227 0.54-0.394 0.362-0.271 0.828-0.635 1.356-1.079 0.746-0.628 1.619-1.42 2.496-2.343 1.046-1.101 2.11-2.402 2.969-3.845 0.783-1.316 1.408-2.772 1.682-4.32 0.096-0.548 0.149-1.107 0.149-1.676zM20 10c0 0.444-0.041 0.887-0.119 1.328-0.221 1.25-0.737 2.478-1.432 3.646-0.762 1.28-1.724 2.463-2.7 3.49-0.815 0.858-1.632 1.599-2.334 2.19-0.496 0.417-0.933 0.758-1.268 1.010-0.052 0.039-0.101 0.075-0.147 0.11-0.047-0.034-0.096-0.071-0.147-0.11-0.336-0.252-0.773-0.593-1.268-1.010-0.702-0.591-1.518-1.332-2.334-2.19-0.976-1.027-1.938-2.21-2.7-3.49-0.695-1.168-1.211-2.396-1.432-3.646-0.078-0.441-0.119-0.884-0.119-1.328 0-1.085 0.216-2.118 0.605-3.059 0.406-0.978 1-1.86 1.738-2.598s1.62-1.333 2.598-1.738c0.941-0.389 1.974-0.605 3.059-0.605s2.118 0.216 3.059 0.605c0.978 0.405 1.859 0.999 2.598 1.738s1.333 1.62 1.738 2.598c0.389 0.941 0.605 1.974 0.605 3.059zM16 10c0-0.54-0.108-1.057-0.303-1.53-0.203-0.49-0.5-0.93-0.868-1.298s-0.809-0.666-1.299-0.869c-0.473-0.195-0.99-0.303-1.53-0.303s-1.057 0.108-1.53 0.303c-0.49 0.203-0.93 0.5-1.298 0.868s-0.666 0.809-0.869 1.299c-0.195 0.473-0.303 0.99-0.303 1.53s0.108 1.057 0.303 1.53c0.203 0.49 0.5 0.93 0.868 1.298s0.808 0.665 1.298 0.868c0.474 0.196 0.991 0.304 1.531 0.304s1.057-0.108 1.53-0.303c0.49-0.203 0.93-0.5 1.298-0.868s0.665-0.808 0.868-1.298c0.196-0.474 0.304-0.991 0.304-1.531zM14 10c0 0.273-0.054 0.53-0.151 0.765-0.101 0.244-0.25 0.464-0.435 0.65s-0.406 0.334-0.65 0.435c-0.234 0.096-0.491 0.15-0.764 0.15s-0.53-0.054-0.765-0.151c-0.244-0.101-0.464-0.25-0.65-0.435s-0.334-0.406-0.435-0.65c-0.096-0.234-0.15-0.491-0.15-0.764s0.054-0.53 0.151-0.765c0.101-0.244 0.25-0.464 0.435-0.65s0.406-0.334 0.65-0.435c0.234-0.096 0.491-0.15 0.764-0.15s0.53 0.054 0.765 0.151c0.244 0.101 0.464 0.25 0.65 0.435s0.334 0.406 0.435 0.65c0.096 0.234 0.15 0.491 0.15 0.764z"></path>
</symbol>
<symbol id="icon-server" viewBox="0 0 24 24">
<title>server</title>
<path d="M4 1c-0.405 0-0.793 0.081-1.148 0.228-0.367 0.152-0.697 0.375-0.973 0.651s-0.499 0.606-0.651 0.973c-0.147 0.355-0.228 0.743-0.228 1.148v4c0 0.405 0.081 0.793 0.228 1.148 0.152 0.368 0.375 0.698 0.651 0.974s0.606 0.499 0.974 0.651c0.354 0.146 0.742 0.227 1.147 0.227h16c0.405 0 0.793-0.081 1.148-0.228 0.368-0.152 0.698-0.375 0.974-0.651s0.499-0.606 0.651-0.974c0.146-0.354 0.227-0.742 0.227-1.147v-4c0-0.405-0.081-0.793-0.228-1.148-0.152-0.368-0.375-0.698-0.651-0.974s-0.606-0.499-0.974-0.651c-0.354-0.146-0.742-0.227-1.147-0.227zM4 3h16c0.137 0 0.266 0.027 0.382 0.075 0.122 0.050 0.232 0.125 0.325 0.218s0.167 0.203 0.218 0.325c0.048 0.116 0.075 0.245 0.075 0.382v4c0 0.137-0.027 0.266-0.075 0.382-0.050 0.122-0.125 0.232-0.218 0.325s-0.203 0.167-0.325 0.218c-0.116 0.048-0.245 0.075-0.382 0.075h-16c-0.137 0-0.266-0.027-0.382-0.075-0.122-0.051-0.232-0.125-0.325-0.218s-0.167-0.203-0.218-0.325c-0.048-0.116-0.075-0.245-0.075-0.382v-4c0-0.137 0.027-0.266 0.075-0.382 0.050-0.122 0.125-0.232 0.218-0.325s0.203-0.167 0.325-0.218c0.116-0.048 0.245-0.075 0.382-0.075zM4 13c-0.405 0-0.793 0.081-1.148 0.228-0.368 0.152-0.698 0.375-0.974 0.651s-0.499 0.606-0.651 0.974c-0.146 0.354-0.227 0.742-0.227 1.147v4c0 0.405 0.081 0.793 0.228 1.148 0.152 0.368 0.375 0.698 0.651 0.974s0.606 0.499 0.974 0.651c0.354 0.146 0.742 0.227 1.147 0.227h16c0.405 0 0.793-0.081 1.148-0.228 0.368-0.152 0.698-0.375 0.974-0.651s0.499-0.606 0.651-0.974c0.146-0.354 0.227-0.742 0.227-1.147v-4c0-0.405-0.081-0.793-0.228-1.148-0.152-0.368-0.375-0.698-0.651-0.974s-0.606-0.499-0.974-0.651c-0.354-0.146-0.742-0.227-1.147-0.227zM4 15h16c0.137 0 0.266 0.027 0.382 0.075 0.122 0.050 0.232 0.125 0.325 0.218s0.167 0.203 0.218 0.325c0.048 0.116 0.075 0.245 0.075 0.382v4c0 0.137-0.027 0.266-0.075 0.382-0.050 0.122-0.125 0.232-0.218 0.325s-0.203 0.167-0.325 0.218c-0.116 0.048-0.245 0.075-0.382 0.075h-16c-0.137 0-0.266-0.027-0.382-0.075-0.122-0.050-0.232-0.125-0.325-0.218s-0.167-0.203-0.218-0.325c-0.048-0.116-0.075-0.245-0.075-0.382v-4c0-0.137 0.027-0.266 0.075-0.382 0.050-0.122 0.125-0.232 0.218-0.325s0.203-0.167 0.325-0.218c0.116-0.048 0.245-0.075 0.382-0.075zM7 6c0-0.552-0.448-1-1-1s-1 0.448-1 1 0.448 1 1 1 1-0.448 1-1zM7 18c0-0.552-0.448-1-1-1s-1 0.448-1 1 0.448 1 1 1 1-0.448 1-1z"></path>
</symbol>
<symbol id="icon-settings" viewBox="0 0 24 24">
<title>settings</title>
<path d="M16 12c0-0.54-0.108-1.057-0.303-1.53-0.203-0.49-0.5-0.93-0.868-1.298s-0.809-0.666-1.299-0.869c-0.473-0.195-0.99-0.303-1.53-0.303s-1.057 0.108-1.53 0.303c-0.49 0.203-0.93 0.5-1.298 0.868s-0.666 0.809-0.869 1.299c-0.195 0.473-0.303 0.99-0.303 1.53s0.108 1.057 0.303 1.53c0.203 0.49 0.5 0.93 0.868 1.298s0.808 0.665 1.298 0.868c0.474 0.196 0.991 0.304 1.531 0.304s1.057-0.108 1.53-0.303c0.49-0.203 0.93-0.5 1.298-0.868s0.665-0.808 0.868-1.298c0.196-0.474 0.304-0.991 0.304-1.531zM14 12c0 0.273-0.054 0.53-0.151 0.765-0.101 0.244-0.25 0.464-0.435 0.65s-0.406 0.334-0.65 0.435c-0.234 0.096-0.491 0.15-0.764 0.15s-0.53-0.054-0.765-0.151c-0.244-0.101-0.464-0.25-0.65-0.435s-0.334-0.406-0.435-0.65c-0.096-0.234-0.15-0.491-0.15-0.764s0.054-0.53 0.151-0.765c0.101-0.244 0.25-0.464 0.435-0.65s0.406-0.334 0.65-0.435c0.234-0.096 0.491-0.15 0.764-0.15s0.53 0.054 0.765 0.151c0.244 0.101 0.464 0.25 0.65 0.435s0.334 0.406 0.435 0.65c0.096 0.234 0.15 0.491 0.15 0.764zM20.315 15.404c0.046-0.105 0.112-0.191 0.192-0.257 0.057-0.047 0.122-0.084 0.19-0.109 0.066-0.024 0.139-0.038 0.213-0.038h0.090c0.405 0 0.793-0.081 1.148-0.228 0.368-0.152 0.698-0.375 0.974-0.651s0.499-0.606 0.651-0.974c0.146-0.354 0.227-0.742 0.227-1.147s-0.081-0.793-0.228-1.148c-0.152-0.368-0.375-0.698-0.651-0.974s-0.606-0.499-0.974-0.651c-0.354-0.146-0.742-0.227-1.147-0.227h-0.159c-0.11-0.001-0.215-0.028-0.308-0.076-0.066-0.034-0.125-0.079-0.174-0.133-0.047-0.050-0.087-0.11-0.117-0.179-0.003-0.029-0.004-0.059-0.004-0.089-0.046-0.106-0.064-0.219-0.054-0.328 0.006-0.074 0.025-0.146 0.056-0.213 0.029-0.064 0.071-0.126 0.118-0.174l0.062-0.062c0.286-0.286 0.503-0.618 0.65-0.973 0.152-0.368 0.228-0.759 0.228-1.149s-0.076-0.781-0.229-1.149c-0.147-0.355-0.365-0.686-0.653-0.974-0.286-0.286-0.618-0.503-0.973-0.65-0.368-0.152-0.759-0.228-1.149-0.228s-0.782 0.077-1.15 0.229c-0.355 0.147-0.686 0.365-0.972 0.651l-0.046 0.047c-0.083 0.080-0.183 0.136-0.288 0.166-0.072 0.020-0.146 0.028-0.219 0.023-0.071-0.005-0.143-0.022-0.218-0.055-0.101-0.044-0.187-0.11-0.253-0.19-0.047-0.057-0.084-0.122-0.109-0.19-0.025-0.067-0.039-0.14-0.039-0.214v-0.090c0-0.405-0.081-0.793-0.228-1.148-0.152-0.368-0.375-0.698-0.651-0.974s-0.606-0.499-0.974-0.651c-0.354-0.146-0.742-0.227-1.147-0.227s-0.793 0.081-1.148 0.228c-0.368 0.152-0.698 0.375-0.974 0.651s-0.498 0.606-0.65 0.973c-0.147 0.355-0.228 0.743-0.228 1.148v0.159c-0.001 0.11-0.028 0.215-0.076 0.308-0.034 0.066-0.079 0.125-0.133 0.174-0.050 0.047-0.11 0.087-0.179 0.117-0.029 0.003-0.059 0.004-0.089 0.004-0.106 0.046-0.219 0.064-0.328 0.054-0.075-0.006-0.147-0.025-0.214-0.055-0.064-0.030-0.126-0.071-0.174-0.118l-0.062-0.062c-0.286-0.286-0.618-0.503-0.973-0.65-0.368-0.152-0.759-0.228-1.149-0.228s-0.781 0.077-1.149 0.229c-0.354 0.147-0.686 0.365-0.973 0.653-0.286 0.286-0.503 0.618-0.65 0.973-0.152 0.368-0.228 0.759-0.228 1.149s0.077 0.781 0.229 1.149c0.147 0.354 0.365 0.686 0.651 0.971l0.047 0.047c0.080 0.083 0.136 0.183 0.166 0.288 0.020 0.072 0.028 0.146 0.023 0.219-0.005 0.071-0.022 0.143-0.054 0.215-0.006 0.016-0.013 0.034-0.021 0.052-0.041 0.109-0.108 0.203-0.191 0.275-0.057 0.049-0.12 0.087-0.189 0.114-0.066 0.026-0.139 0.041-0.194 0.043h-0.090c-0.405 0-0.793 0.081-1.148 0.228-0.367 0.152-0.697 0.375-0.973 0.651s-0.499 0.606-0.651 0.974c-0.147 0.354-0.228 0.742-0.228 1.147s0.081 0.793 0.228 1.148c0.152 0.368 0.375 0.698 0.651 0.974s0.606 0.499 0.974 0.651c0.354 0.146 0.742 0.227 1.147 0.227h0.159c0.11 0.001 0.215 0.028 0.308 0.076 0.066 0.034 0.125 0.079 0.174 0.133 0.048 0.052 0.089 0.113 0.121 0.188 0.046 0.106 0.064 0.219 0.054 0.328-0.006 0.074-0.025 0.146-0.056 0.213-0.029 0.064-0.071 0.126-0.118 0.174l-0.062 0.062c-0.286 0.286-0.503 0.618-0.65 0.973-0.152 0.368-0.228 0.759-0.228 1.149s0.076 0.781 0.229 1.149c0.147 0.355 0.365 0.686 0.653 0.974 0.286 0.286 0.618 0.503 0.973 0.65 0.368 0.152 0.759 0.228 1.149 0.228s0.781-0.076 1.149-0.229c0.355-0.147 0.686-0.365 0.972-0.651l0.047-0.048c0.083-0.080 0.183-0.136 0.288-0.166 0.072-0.020 0.146-0.028 0.219-0.023 0.071 0.005 0.143 0.022 0.215 0.054 0.016 0.006 0.034 0.013 0.052 0.021 0.109 0.041 0.203 0.108 0.275 0.191 0.049 0.056 0.087 0.12 0.114 0.189 0.025 0.066 0.041 0.139 0.042 0.194v0.091c0 0.405 0.081 0.793 0.228 1.148 0.152 0.368 0.375 0.698 0.651 0.974s0.606 0.499 0.974 0.651c0.355 0.146 0.743 0.227 1.148 0.227s0.793-0.081 1.148-0.228c0.368-0.152 0.698-0.375 0.974-0.651s0.499-0.606 0.651-0.974c0.147-0.355 0.228-0.743 0.228-1.148v-0.159c0.001-0.11 0.028-0.215 0.076-0.308 0.034-0.066 0.079-0.125 0.133-0.174 0.052-0.048 0.113-0.089 0.188-0.121 0.106-0.046 0.219-0.064 0.328-0.054 0.074 0.006 0.146 0.025 0.213 0.056 0.064 0.029 0.126 0.071 0.174 0.118l0.062 0.062c0.286 0.286 0.618 0.503 0.973 0.65 0.368 0.152 0.759 0.228 1.149 0.228s0.781-0.076 1.149-0.229c0.355-0.147 0.686-0.365 0.974-0.653 0.286-0.286 0.503-0.618 0.65-0.973 0.152-0.368 0.228-0.759 0.228-1.149s-0.076-0.781-0.229-1.149c-0.147-0.355-0.365-0.686-0.651-0.972l-0.048-0.047c-0.080-0.083-0.136-0.183-0.166-0.288-0.020-0.072-0.028-0.146-0.023-0.219 0.005-0.071 0.022-0.143 0.054-0.215zM18.485 14.596c-0.126 0.285-0.198 0.582-0.219 0.88-0.022 0.307 0.011 0.612 0.092 0.901 0.119 0.423 0.341 0.814 0.652 1.137l0.072 0.073c0.098 0.097 0.169 0.207 0.218 0.324 0.050 0.122 0.076 0.252 0.076 0.384s-0.025 0.262-0.076 0.384c-0.048 0.116-0.12 0.226-0.217 0.324-0.099 0.099-0.209 0.17-0.325 0.219-0.122 0.050-0.252 0.076-0.384 0.076s-0.262-0.025-0.384-0.076c-0.116-0.048-0.226-0.12-0.324-0.217l-0.061-0.061c-0.23-0.226-0.484-0.398-0.755-0.522-0.28-0.128-0.577-0.205-0.876-0.23-0.437-0.037-0.882 0.034-1.293 0.212-0.281 0.12-0.535 0.288-0.753 0.49-0.224 0.208-0.408 0.451-0.547 0.717-0.193 0.371-0.298 0.785-0.303 1.211v0.181c0 0.137-0.027 0.266-0.075 0.382-0.050 0.122-0.125 0.232-0.218 0.325s-0.203 0.167-0.325 0.218c-0.114 0.045-0.243 0.072-0.38 0.072s-0.266-0.027-0.382-0.075c-0.122-0.050-0.232-0.125-0.325-0.218s-0.167-0.203-0.218-0.325c-0.048-0.116-0.075-0.245-0.075-0.382v-0.090c-0.008-0.335-0.069-0.635-0.176-0.914-0.111-0.287-0.27-0.55-0.467-0.777-0.284-0.328-0.646-0.585-1.058-0.745-0.277-0.119-0.566-0.187-0.854-0.208-0.307-0.022-0.612 0.011-0.901 0.092-0.423 0.119-0.814 0.341-1.137 0.652l-0.073 0.072c-0.099 0.098-0.208 0.17-0.325 0.218-0.122 0.050-0.252 0.076-0.384 0.076s-0.262-0.025-0.384-0.076c-0.116-0.048-0.226-0.12-0.324-0.217-0.099-0.099-0.17-0.209-0.219-0.325-0.050-0.122-0.076-0.252-0.076-0.384s0.025-0.262 0.076-0.384c0.048-0.116 0.12-0.226 0.217-0.324l0.061-0.061c0.226-0.23 0.398-0.484 0.522-0.755 0.128-0.28 0.205-0.577 0.23-0.876 0.037-0.437-0.034-0.882-0.212-1.293-0.12-0.281-0.288-0.535-0.49-0.753-0.208-0.225-0.451-0.408-0.717-0.547-0.371-0.193-0.785-0.298-1.211-0.303l-0.178 0.002c-0.137 0-0.266-0.027-0.382-0.075-0.122-0.050-0.232-0.125-0.325-0.218s-0.167-0.203-0.218-0.325c-0.048-0.116-0.075-0.245-0.075-0.382s0.027-0.266 0.075-0.382c0.050-0.122 0.125-0.232 0.218-0.325s0.203-0.167 0.325-0.218c0.116-0.048 0.245-0.075 0.382-0.075h0.090c0.335-0.008 0.635-0.069 0.914-0.176 0.287-0.111 0.55-0.27 0.777-0.467 0.328-0.284 0.585-0.646 0.745-1.058 0.119-0.277 0.187-0.566 0.208-0.854 0.022-0.307-0.011-0.612-0.092-0.901-0.119-0.425-0.341-0.816-0.652-1.138l-0.073-0.073c-0.097-0.098-0.169-0.207-0.217-0.324-0.051-0.121-0.076-0.252-0.077-0.383s0.025-0.262 0.076-0.384c0.048-0.116 0.12-0.226 0.217-0.324 0.099-0.098 0.208-0.17 0.325-0.218 0.121-0.051 0.252-0.076 0.383-0.077s0.262 0.025 0.384 0.076c0.116 0.048 0.226 0.12 0.324 0.217l0.061 0.061c0.23 0.226 0.484 0.398 0.755 0.522 0.28 0.128 0.577 0.205 0.876 0.23 0.37 0.032 0.745-0.014 1.101-0.137 0.096-0.012 0.187-0.037 0.269-0.073 0.285-0.122 0.539-0.289 0.757-0.491 0.225-0.208 0.408-0.451 0.547-0.717 0.192-0.37 0.297-0.785 0.302-1.21v-0.181c0-0.137 0.027-0.266 0.075-0.382 0.050-0.122 0.125-0.232 0.218-0.325s0.203-0.167 0.325-0.218c0.116-0.048 0.245-0.075 0.382-0.075s0.266 0.027 0.382 0.075c0.122 0.050 0.232 0.125 0.325 0.218s0.167 0.203 0.218 0.325c0.048 0.116 0.075 0.245 0.075 0.382v0.090c0.001 0.314 0.056 0.613 0.157 0.892 0.104 0.288 0.256 0.552 0.447 0.783 0.266 0.323 0.607 0.581 0.996 0.751 0.281 0.124 0.579 0.196 0.876 0.217 0.307 0.022 0.612-0.011 0.901-0.092 0.423-0.119 0.814-0.341 1.137-0.652l0.073-0.072c0.097-0.098 0.207-0.169 0.324-0.218 0.122-0.050 0.252-0.076 0.384-0.076s0.262 0.025 0.384 0.076c0.116 0.048 0.226 0.12 0.324 0.217 0.099 0.099 0.17 0.209 0.219 0.325 0.050 0.122 0.076 0.252 0.076 0.384s-0.025 0.262-0.076 0.384c-0.048 0.116-0.12 0.226-0.217 0.324l-0.061 0.061c-0.226 0.23-0.398 0.484-0.522 0.755-0.128 0.28-0.205 0.577-0.23 0.876-0.032 0.37 0.014 0.745 0.137 1.101 0.012 0.096 0.037 0.187 0.073 0.269 0.122 0.285 0.289 0.539 0.491 0.757 0.208 0.224 0.451 0.408 0.717 0.547 0.371 0.193 0.785 0.298 1.211 0.303l0.179-0.002c0.137 0 0.266 0.027 0.382 0.075 0.122 0.050 0.232 0.125 0.325 0.218s0.167 0.203 0.218 0.325c0.048 0.116 0.075 0.245 0.075 0.382s-0.027 0.266-0.075 0.382c-0.050 0.122-0.125 0.232-0.218 0.325s-0.203 0.167-0.325 0.218c-0.116 0.048-0.245 0.075-0.382 0.075h-0.090c-0.314 0.001-0.613 0.056-0.892 0.157-0.288 0.104-0.552 0.256-0.783 0.447-0.323 0.266-0.581 0.607-0.75 0.993z"></path>
</symbol>
<symbol id="icon-smartphone" viewBox="0 0 24 24">
<title>smartphone</title>
<path d="M7 1c-0.405 0-0.793 0.081-1.148 0.228-0.367 0.152-0.697 0.375-0.973 0.651s-0.499 0.606-0.651 0.973c-0.147 0.355-0.228 0.743-0.228 1.148v16c0 0.405 0.081 0.793 0.228 1.148 0.152 0.368 0.375 0.698 0.651 0.974s0.606 0.499 0.974 0.651c0.354 0.146 0.742 0.227 1.147 0.227h10c0.405 0 0.793-0.081 1.148-0.228 0.368-0.152 0.698-0.375 0.974-0.651s0.499-0.606 0.651-0.974c0.146-0.354 0.227-0.742 0.227-1.147v-16c0-0.405-0.081-0.793-0.228-1.148-0.152-0.368-0.375-0.698-0.651-0.974s-0.606-0.499-0.974-0.651c-0.354-0.146-0.742-0.227-1.147-0.227zM7 3h10c0.137 0 0.266 0.027 0.382 0.075 0.122 0.050 0.232 0.125 0.325 0.218s0.167 0.203 0.218 0.325c0.048 0.116 0.075 0.245 0.075 0.382v16c0 0.137-0.027 0.266-0.075 0.382-0.050 0.122-0.125 0.232-0.218 0.325s-0.203 0.167-0.325 0.218c-0.116 0.048-0.245 0.075-0.382 0.075h-10c-0.137 0-0.266-0.027-0.382-0.075-0.122-0.050-0.232-0.125-0.325-0.218s-0.167-0.203-0.218-0.325c-0.048-0.116-0.075-0.245-0.075-0.382v-16c0-0.137 0.027-0.266 0.075-0.382 0.050-0.122 0.125-0.232 0.218-0.325s0.203-0.167 0.325-0.218c0.116-0.048 0.245-0.075 0.382-0.075zM13 18c0-0.552-0.448-1-1-1s-1 0.448-1 1 0.448 1 1 1 1-0.448 1-1z"></path>
</symbol>
<symbol id="icon-terminal" viewBox="0 0 24 24">
<title>terminal</title>
<path d="M4.707 17.707l6-6c0.391-0.391 0.391-1.024 0-1.414l-6-6c-0.391-0.391-1.024-0.391-1.414 0s-0.391 1.024 0 1.414l5.293 5.293-5.293 5.293c-0.391 0.391-0.391 1.024 0 1.414s1.024 0.391 1.414 0zM12 20h8c0.552 0 1-0.448 1-1s-0.448-1-1-1h-8c-0.552 0-1 0.448-1 1s0.448 1 1 1z"></path>
</symbol>
<symbol id="icon-toggle-left" viewBox="0 0 24 24">
<title>toggle-left</title>
<path d="M8 4c-1.082 0-2.116 0.215-3.060 0.606-0.98 0.406-1.86 1-2.597 1.737s-1.331 1.618-1.737 2.597c-0.391 0.944-0.606 1.978-0.606 3.060s0.215 2.116 0.606 3.060c0.406 0.98 1 1.86 1.737 2.597s1.618 1.331 2.597 1.737c0.944 0.391 1.978 0.606 3.060 0.606h8c1.082 0 2.116-0.215 3.060-0.606 0.98-0.406 1.86-1 2.597-1.737s1.331-1.618 1.737-2.597c0.391-0.944 0.606-1.978 0.606-3.060s-0.215-2.116-0.606-3.060c-0.406-0.98-1-1.86-1.737-2.597s-1.618-1.331-2.597-1.737c-0.944-0.391-1.978-0.606-3.060-0.606zM8 6h8c0.815 0 1.589 0.162 2.294 0.454 0.733 0.304 1.394 0.749 1.948 1.303s1 1.215 1.303 1.948c0.293 0.706 0.455 1.48 0.455 2.295s-0.162 1.589-0.454 2.294c-0.304 0.733-0.749 1.394-1.303 1.948s-1.215 1-1.948 1.303c-0.706 0.293-1.48 0.455-2.295 0.455h-8c-0.815 0-1.589-0.162-2.294-0.454-0.733-0.304-1.394-0.749-1.948-1.303s-1-1.215-1.303-1.948c-0.293-0.706-0.455-1.48-0.455-2.295s0.162-1.589 0.454-2.294c0.304-0.733 0.749-1.394 1.303-1.948s1.215-1 1.948-1.303c0.706-0.293 1.48-0.455 2.295-0.455zM12 12c0-0.54-0.108-1.057-0.303-1.53-0.203-0.49-0.5-0.93-0.868-1.298s-0.809-0.666-1.299-0.869c-0.473-0.195-0.99-0.303-1.53-0.303s-1.057 0.108-1.53 0.303c-0.49 0.203-0.93 0.5-1.298 0.868s-0.666 0.809-0.869 1.299c-0.195 0.473-0.303 0.99-0.303 1.53s0.108 1.057 0.303 1.53c0.203 0.49 0.5 0.93 0.868 1.298s0.808 0.665 1.298 0.868c0.474 0.196 0.991 0.304 1.531 0.304s1.057-0.108 1.53-0.303c0.49-0.203 0.93-0.5 1.298-0.868s0.665-0.808 0.868-1.298c0.196-0.474 0.304-0.991 0.304-1.531zM10 12c0 0.273-0.054 0.53-0.151 0.765-0.101 0.244-0.25 0.464-0.435 0.65s-0.406 0.334-0.65 0.435c-0.234 0.096-0.491 0.15-0.764 0.15s-0.53-0.054-0.765-0.151c-0.244-0.101-0.464-0.25-0.65-0.435s-0.334-0.406-0.435-0.65c-0.096-0.234-0.15-0.491-0.15-0.764s0.054-0.53 0.151-0.765c0.101-0.244 0.25-0.464 0.435-0.65s0.406-0.334 0.65-0.435c0.234-0.096 0.491-0.15 0.764-0.15s0.53 0.054 0.765 0.151c0.244 0.101 0.464 0.25 0.65 0.435s0.334 0.406 0.435 0.65c0.096 0.234 0.15 0.491 0.15 0.764z"></path>
</symbol>
<symbol id="icon-video" viewBox="0 0 24 24">
<title>video</title>
<path d="M22 8.943v6.114l-4.28-3.057zM3 4c-0.405 0-0.793 0.081-1.148 0.228-0.367 0.152-0.697 0.375-0.973 0.651s-0.499 0.606-0.651 0.973c-0.147 0.355-0.228 0.743-0.228 1.148v10c0 0.405 0.081 0.793 0.228 1.148 0.152 0.368 0.375 0.698 0.651 0.974s0.606 0.499 0.974 0.651c0.354 0.146 0.742 0.227 1.147 0.227h11c0.405 0 0.793-0.081 1.148-0.228 0.368-0.152 0.698-0.375 0.974-0.651s0.499-0.606 0.651-0.974c0.146-0.354 0.227-0.742 0.227-1.147v-3.057l5.419 3.871c0.449 0.321 1.074 0.217 1.395-0.232 0.126-0.178 0.187-0.383 0.186-0.582v-10c0-0.552-0.448-1-1-1-0.218 0-0.42 0.070-0.581 0.186l-5.419 3.871v-3.057c0-0.405-0.081-0.793-0.228-1.148-0.152-0.368-0.375-0.698-0.651-0.974s-0.606-0.499-0.974-0.651c-0.354-0.146-0.742-0.227-1.147-0.227zM3 6h11c0.137 0 0.266 0.027 0.382 0.075 0.122 0.050 0.232 0.125 0.325 0.218s0.167 0.203 0.218 0.325c0.048 0.116 0.075 0.245 0.075 0.382v10c0 0.137-0.027 0.266-0.075 0.382-0.050 0.122-0.125 0.232-0.218 0.325s-0.203 0.167-0.325 0.218c-0.116 0.048-0.245 0.075-0.382 0.075h-11c-0.137 0-0.266-0.027-0.382-0.075-0.122-0.050-0.232-0.125-0.325-0.218s-0.167-0.203-0.218-0.325c-0.048-0.116-0.075-0.245-0.075-0.382v-10c0-0.137 0.027-0.266 0.075-0.382 0.050-0.122 0.125-0.232 0.218-0.325s0.203-0.167 0.325-0.218c0.116-0.048 0.245-0.075 0.382-0.075z"></path>
</symbol>
</defs>
</svg>
